<?xml version="1.0" encoding="UTF-8"?>
<svg xmlns="http://www.w3.org/2000/svg" xmlns:xlink="http://www.w3.org/1999/xlink" width="210px" height="150px" viewBox="0 0 210 150" version="1.1">
<g id="surface1">
<path style=" stroke:none;fill-rule:evenodd;fill:rgb(100%,100%,100%);fill-opacity:1;" d="M 35.34375 75.269531 C 36.378906 71.382812 35.199219 67.308594 32.375 65.148438 C 28.527344 67.582031 26.308594 72.160156 27.109375 76.929688 C 27.375 78.507812 27.945312 79.957031 28.75 81.226562 C 31.757812 80.390625 34.402344 78.804688 35.34375 75.269531 M 40.535156 86.492188 C 46.882812 85.425781 51.164062 79.417969 50.097656 73.070312 C 49.210938 67.789062 44.902344 63.9375 39.824219 63.40625 C 38.800781 63.300781 37.742188 63.328125 36.671875 63.507812 C 35.40625 63.71875 34.226562 64.128906 33.152344 64.699219 C 38.746094 66.597656 41.753906 69.484375 41.964844 72.441406 C 42.066406 74.265625 41.21875 75.585938 40.101562 76.660156 L 48.015625 76.109375 C 48.238281 76.09375 48.308594 76.351562 48.039062 76.429688 L 29.167969 81.839844 C 31.089844 84.488281 34.070312 86.246094 37.382812 86.59375 C 38.410156 86.703125 39.46875 86.675781 40.535156 86.492188 M 39.898438 62.710938 C 46.113281 63.359375 50.960938 68.609375 50.960938 74.996094 C 50.964844 81.820312 45.433594 87.355469 38.609375 87.355469 C 31.785156 87.359375 26.253906 81.828125 26.25 75.003906 C 26.25 68.179688 31.777344 62.648438 38.601562 62.644531 C 39.039062 62.644531 39.472656 62.667969 39.898438 62.710938 "/>
<path style=" stroke:none;fill-rule:evenodd;fill:rgb(78.039216%,3.921569%,4.705882%);fill-opacity:1;" d="M 27.109375 76.929688 C 27.375 78.507812 27.945312 79.957031 28.75 81.226562 C 31.757812 80.390625 34.402344 78.804688 35.34375 75.269531 C 36.378906 71.382812 35.199219 67.308594 32.375 65.148438 C 28.527344 67.582031 26.308594 72.160156 27.109375 76.929688 M 50.097656 73.070312 C 51.164062 79.417969 46.882812 85.425781 40.535156 86.492188 C 39.46875 86.671875 38.410156 86.699219 37.382812 86.59375 C 34.070312 86.246094 31.085938 84.488281 29.167969 81.839844 L 48.039062 76.429688 C 48.308594 76.351562 48.238281 76.09375 48.015625 76.105469 L 40.101562 76.660156 C 41.214844 75.582031 42.066406 74.265625 41.960938 72.4375 C 41.753906 69.484375 38.746094 66.597656 33.148438 64.699219 C 34.226562 64.128906 35.40625 63.71875 36.671875 63.507812 C 37.738281 63.328125 38.800781 63.296875 39.824219 63.40625 C 44.902344 63.9375 49.210938 67.789062 50.097656 73.070312 "/>
<path style=" stroke:none;fill-rule:evenodd;fill:rgb(0%,0%,0%);fill-opacity:1;" d="M 114.960938 79.847656 L 114.960938 75.785156 L 110.886719 75.785156 L 110.886719 79.847656 L 108.652344 79.847656 L 108.652344 70.167969 L 110.886719 70.167969 L 110.886719 74.023438 L 114.960938 74.023438 L 114.960938 70.167969 L 117.210938 70.167969 L 117.210938 79.847656 Z M 114.960938 79.847656 "/>
<path style=" stroke:none;fill-rule:evenodd;fill:rgb(0%,0%,0%);fill-opacity:1;" d="M 66.773438 70.167969 L 66.773438 76.226562 C 66.773438 76.898438 66.871094 77.476562 67.066406 77.949219 C 67.257812 78.414062 67.539062 78.804688 67.898438 79.101562 C 68.261719 79.402344 68.699219 79.625 69.199219 79.761719 C 69.707031 79.902344 70.277344 79.972656 70.902344 79.972656 C 71.523438 79.972656 72.09375 79.902344 72.589844 79.761719 C 73.078125 79.625 73.496094 79.40625 73.832031 79.105469 C 74.164062 78.804688 74.425781 78.417969 74.609375 77.949219 C 74.792969 77.480469 74.886719 76.902344 74.886719 76.226562 L 74.886719 70.167969 L 72.796875 70.167969 L 72.796875 76.164062 C 72.796875 76.773438 72.644531 77.265625 72.34375 77.628906 C 72.039062 77.996094 71.554688 78.183594 70.902344 78.183594 C 70.261719 78.183594 69.777344 77.996094 69.46875 77.628906 C 69.164062 77.269531 69.007812 76.773438 69.007812 76.164062 L 69.007812 70.167969 Z M 66.773438 70.167969 "/>
<path style=" stroke:none;fill-rule:evenodd;fill:rgb(0%,0%,0%);fill-opacity:1;" d="M 60.320312 79.847656 L 60.320312 71.976562 L 57.691406 71.976562 L 57.691406 70.167969 L 65.203125 70.167969 L 65.203125 71.035156 C 65.203125 71.554688 64.78125 71.976562 64.261719 71.976562 L 62.558594 71.976562 L 62.558594 79.847656 Z M 60.320312 79.847656 "/>
<path style=" stroke:none;fill-rule:evenodd;fill:rgb(0%,0%,0%);fill-opacity:1;" d="M 96.261719 70.167969 L 98.496094 70.167969 L 98.496094 79.84375 L 96.261719 79.84375 Z M 96.261719 70.167969 "/>
<path style=" stroke:none;fill-rule:evenodd;fill:rgb(0%,0%,0%);fill-opacity:1;" d="M 88.8125 75.332031 L 88.886719 75.429688 L 91.746094 79.109375 C 92.109375 79.578125 92.65625 79.847656 93.25 79.847656 L 95.03125 79.847656 L 90.9375 74.644531 L 90.878906 74.566406 L 90.9375 74.488281 L 94.304688 70.164062 L 91.976562 70.164062 L 88.890625 74.335938 L 88.8125 74.4375 L 88.8125 70.164062 L 86.578125 70.164062 L 86.578125 79.84375 L 88.8125 79.84375 Z M 88.8125 75.332031 "/>
<path style=" stroke:none;fill-rule:evenodd;fill:rgb(0%,0%,0%);fill-opacity:1;" d="M 79.1875 74.597656 L 80.492188 74.597656 C 80.960938 74.597656 81.320312 74.46875 81.554688 74.214844 C 81.789062 73.964844 81.90625 73.636719 81.90625 73.246094 C 81.90625 72.84375 81.789062 72.515625 81.5625 72.261719 C 81.332031 72.007812 80.972656 71.878906 80.492188 71.878906 L 79.1875 71.878906 Z M 83.660156 79.84375 C 82.996094 79.84375 82.375 79.492188 82.03125 78.925781 L 80.292969 76.054688 L 79.1875 76.054688 L 79.1875 79.84375 L 76.953125 79.84375 L 76.953125 70.167969 L 80.9375 70.167969 C 81.960938 70.167969 82.765625 70.4375 83.320312 70.964844 C 83.878906 71.488281 84.160156 72.210938 84.160156 73.105469 C 84.160156 73.558594 84.039062 74.019531 83.800781 74.472656 C 83.5625 74.917969 83.148438 75.28125 82.558594 75.554688 L 82.429688 75.617188 L 85.144531 79.84375 Z M 83.660156 79.84375 "/>
<path style=" stroke:none;fill-rule:evenodd;fill:rgb(0%,0%,0%);fill-opacity:1;" d="M 100.332031 79.433594 L 100.332031 77.578125 C 101.042969 77.90625 101.960938 78.234375 102.910156 78.234375 C 104 78.234375 104.554688 77.859375 104.554688 77.144531 C 104.554688 76.300781 103.8125 76.207031 102.324219 75.570312 C 101.3125 75.117188 100.347656 74.414062 100.347656 72.792969 C 100.347656 70.910156 101.789062 70.019531 103.78125 70.019531 C 104.839844 70.019531 105.742188 70.269531 106.246094 70.457031 L 106.246094 72.265625 C 105.742188 72.03125 104.839844 71.75 103.9375 71.75 C 102.957031 71.75 102.5 72.109375 102.5 72.730469 C 102.5 73.386719 103.054688 73.589844 104.050781 73.964844 C 105.328125 74.601562 106.816406 74.882812 106.816406 77.066406 C 106.816406 78.953125 105.316406 79.980469 103.304688 79.980469 C 102.070312 79.980469 101.09375 79.761719 100.332031 79.4375 "/>
<path style=" stroke:none;fill-rule:evenodd;fill:rgb(0%,0%,0%);fill-opacity:1;" d="M 169.410156 79.84375 L 169.410156 70.167969 L 175.46875 70.167969 L 175.46875 71.046875 C 175.46875 71.558594 175.054688 71.972656 174.542969 71.972656 L 171.648438 71.972656 L 171.648438 74.054688 L 174.898438 74.054688 L 174.898438 75.671875 L 171.648438 75.671875 L 171.648438 78.039062 L 175.46875 78.039062 L 175.46875 79.84375 Z M 169.410156 79.84375 "/>
<path style=" stroke:none;fill-rule:evenodd;fill:rgb(0%,0%,0%);fill-opacity:1;" d="M 147.300781 79.84375 L 147.300781 70.167969 L 148.386719 70.167969 C 149.019531 70.167969 149.535156 70.683594 149.535156 71.316406 L 149.535156 78.101562 L 153.105469 78.101562 L 153.105469 79.84375 Z M 147.300781 79.84375 "/>
<path style=" stroke:none;fill-rule:evenodd;fill:rgb(0%,0%,0%);fill-opacity:1;" d="M 133.457031 79.84375 L 133.457031 70.171875 L 135.695312 70.171875 L 135.695312 79.84375 Z M 133.457031 79.84375 "/>
<path style=" stroke:none;fill-rule:evenodd;fill:rgb(0%,0%,0%);fill-opacity:1;" d="M 139.980469 74.597656 L 141.285156 74.597656 C 141.753906 74.597656 142.109375 74.46875 142.347656 74.214844 C 142.578125 73.964844 142.699219 73.636719 142.699219 73.246094 C 142.699219 72.84375 142.582031 72.511719 142.355469 72.261719 C 142.125 72.007812 141.765625 71.878906 141.285156 71.878906 L 139.980469 71.878906 Z M 144.453125 79.84375 C 143.789062 79.84375 143.164062 79.492188 142.820312 78.925781 L 141.082031 76.050781 L 139.980469 76.050781 L 139.980469 79.84375 L 137.746094 79.84375 L 137.746094 70.167969 L 141.730469 70.167969 C 142.753906 70.167969 143.554688 70.433594 144.113281 70.960938 C 144.667969 71.488281 144.949219 72.207031 144.949219 73.101562 C 144.949219 73.554688 144.828125 74.015625 144.589844 74.46875 C 144.355469 74.914062 143.9375 75.28125 143.351562 75.554688 L 143.21875 75.613281 L 145.933594 79.84375 Z M 144.453125 79.84375 "/>
<path style=" stroke:none;fill-rule:evenodd;fill:rgb(0%,0%,0%);fill-opacity:1;" d="M 125.769531 76.320312 L 126.648438 73.875 C 126.84375 73.324219 127.039062 72.742188 127.167969 72.3125 L 127.203125 72.3125 C 127.316406 72.757812 127.511719 73.308594 127.707031 73.875 L 128.550781 76.320312 Z M 128.535156 70.167969 L 125.964844 70.167969 L 122.316406 79.84375 L 123.925781 79.84375 C 124.335938 79.84375 124.699219 79.582031 124.824219 79.195312 L 125.199219 78.058594 L 129.125 78.058594 L 129.699219 79.84375 L 132.121094 79.84375 Z M 128.535156 70.167969 "/>
<path style=" stroke:none;fill-rule:evenodd;fill:rgb(0%,0%,0%);fill-opacity:1;" d="M 177.265625 79.433594 L 177.265625 77.582031 C 177.976562 77.90625 178.894531 78.234375 179.84375 78.234375 C 180.933594 78.234375 181.488281 77.859375 181.488281 77.144531 C 181.488281 76.300781 180.746094 76.207031 179.257812 75.570312 C 178.246094 75.117188 177.28125 74.414062 177.28125 72.792969 C 177.28125 70.90625 178.722656 70.019531 180.714844 70.019531 C 181.773438 70.019531 182.675781 70.269531 183.179688 70.453125 L 183.179688 72.261719 C 182.675781 72.03125 181.773438 71.75 180.871094 71.75 C 179.890625 71.75 179.433594 72.109375 179.433594 72.730469 C 179.433594 73.386719 179.984375 73.589844 180.980469 73.964844 C 182.261719 74.601562 183.75 74.882812 183.75 77.066406 C 183.75 78.953125 182.246094 79.980469 180.238281 79.980469 C 179.003906 79.980469 178.023438 79.761719 177.265625 79.433594 "/>
<path style=" stroke:none;fill-rule:evenodd;fill:rgb(0%,0%,0%);fill-opacity:1;" d="M 158.828125 70.167969 L 160.214844 70.167969 C 160.871094 70.167969 161.484375 70.507812 161.832031 71.066406 L 164.53125 75.402344 C 164.835938 75.886719 165.1875 76.519531 165.398438 76.972656 L 165.445312 76.972656 C 165.414062 76.535156 165.398438 75.929688 165.398438 75.496094 L 165.398438 70.167969 L 167.359375 70.167969 L 167.359375 79.847656 L 164.90625 79.847656 L 161.625 74.609375 C 161.316406 74.128906 160.996094 73.554688 160.773438 73.121094 L 160.738281 73.121094 C 160.757812 73.539062 160.789062 74.035156 160.789062 74.503906 L 160.789062 79.847656 L 158.828125 79.847656 Z M 158.828125 70.167969 "/>
<path style=" stroke:none;fill-rule:evenodd;fill:rgb(0%,0%,0%);fill-opacity:1;" d="M 154.546875 70.171875 L 156.78125 70.171875 L 156.78125 79.84375 L 154.546875 79.84375 Z M 154.546875 70.171875 "/>
</g>
</svg>
